<svg width="150" height="77" viewBox="0 0 150 77" fill="none" xmlns="http://www.w3.org/2000/svg">
<g clip-path="url(#clip0_336_6)">
<path d="M75.7347 54.2103L68.8776 39.195L58.3776 16.6644C56.9847 13.6032 55.5765 10.5419 54.1531 7.57256C53.9694 7.1746 54.1531 7.06746 54.4439 6.97562L75.3214 0.0878628C76.0714 -0.157035 76.699 0.286842 77.3418 0.501128C83.7857 2.58276 90.199 4.72562 96.6276 6.83786C97.4694 7.12868 97.4694 7.12868 97.0714 7.98582L84.551 35.093L75.7347 54.2103ZM75.7347 48.7001C76.0102 48.5624 76.0102 48.3328 76.1021 48.1644C79.6123 40.5521 83.1072 32.996 86.5867 25.496C89.1123 20.0317 91.6378 14.5521 94.2398 9.10317C94.5153 8.49092 94.3776 8.30725 93.7806 8.15419C93.1837 8.00113 92.4337 7.75623 91.7755 7.52664L76.4694 2.46031C76.0703 2.30711 75.6287 2.30711 75.2296 2.46031C69.9745 4.1746 64.7959 5.87358 59.6939 7.55725C58.8869 7.77181 58.0945 8.03766 57.3214 8.35317C57.5128 8.52526 57.7444 8.64634 57.9949 8.70521C63.6072 10.9093 69.2398 13.1134 74.8929 15.3175C75.16 15.3696 75.3967 15.5229 75.5535 15.7454C75.7103 15.9678 75.7753 16.2422 75.7347 16.5113C75.7347 27.2256 75.7347 37.9399 75.7347 48.6542V48.7001Z" fill="#2A2A2A"/>
<path d="M75.7347 48.7001C75.7347 37.9858 75.7347 27.2715 75.7347 16.5572C75.7683 16.2873 75.7009 16.0145 75.5455 15.7913C75.3901 15.5681 75.1576 15.4102 74.8928 15.3481C69.2296 13.1899 63.5816 10.9705 57.9336 8.78173C57.6792 8.72106 57.4431 8.60035 57.2449 8.42969C58.0403 8.08328 58.8586 7.79178 59.6939 7.55724L75.1224 2.44499C75.5295 2.30736 75.9705 2.30736 76.3775 2.44499C81.4796 4.13887 86.5816 5.82764 91.6837 7.51132C92.3571 7.74091 93.0153 7.9705 93.7041 8.13887C94.3928 8.30724 94.4387 8.4756 94.1479 9.08785C91.5918 14.5521 89.0816 20.0164 86.4949 25.4807C83.0663 32.9909 79.602 40.547 76.102 48.1491C76.0102 48.3481 75.9949 48.5623 75.7347 48.7001Z" fill="white"/>
<path d="M10.2398 72.0725C10.1054 71.829 9.93516 71.6072 9.73471 71.4144C9.54917 71.2292 9.34386 71.065 9.12247 70.9246C9.36344 70.5832 9.54938 70.2062 9.67349 69.8072C9.7785 69.4438 9.83511 69.0681 9.84185 68.6899V68.3225C9.85386 67.9758 9.7855 67.6309 9.64212 67.3149C9.49873 66.999 9.28421 66.7204 9.01532 66.5011C8.78656 66.3193 8.52748 66.1794 8.25002 66.0878C8.00144 66.0134 7.7441 65.9723 7.48471 65.9654H0.979609C0.854033 65.9337 0.722531 65.9337 0.596955 65.9654C0.479422 66.0133 0.370767 66.0805 0.275527 66.1644C0.191663 66.2596 0.124399 66.3683 0.0765473 66.4858C0.0535858 66.6123 0.0535858 66.7419 0.0765473 66.8685V75.6236C0.0769451 75.7549 0.10294 75.8849 0.153078 76.0062C0.20093 76.1238 0.268193 76.2324 0.352058 76.3276C0.42295 76.4105 0.505434 76.4827 0.596955 76.5419C0.71832 76.5921 0.848296 76.6181 0.979609 76.6185H8.35716C8.7374 76.6291 9.11485 76.5505 9.4592 76.3889C9.73715 76.241 9.98196 76.0378 10.1786 75.7919C10.3583 75.5699 10.4934 75.3152 10.5765 75.0419C10.658 74.8103 10.7045 74.5679 10.7143 74.3225V73.9552C10.7189 73.6034 10.6725 73.2528 10.5765 72.9144C10.5044 72.6193 10.3911 72.3359 10.2398 72.0725ZM8.7092 74.3072C8.72811 74.3878 8.72811 74.4716 8.7092 74.5521C8.68621 74.6067 8.64926 74.6542 8.60206 74.6899H8.4643H1.94389V67.9093H7.48471C7.53957 67.9042 7.59487 67.9116 7.64651 67.9308C7.69814 67.95 7.74479 67.9806 7.78301 68.0203C7.82123 68.06 7.85003 68.1077 7.86728 68.16C7.88453 68.2124 7.88979 68.2679 7.88267 68.3225V68.6899C7.89243 68.9257 7.85064 69.1607 7.76022 69.3787C7.68639 69.5706 7.57738 69.7471 7.43879 69.8991C7.28353 70.0372 7.10803 70.1508 6.91838 70.2358C6.69666 70.3109 6.46365 70.3471 6.22961 70.343H2.72451V72.3021H7.10206C7.337 72.3029 7.57003 72.3443 7.79083 72.4246C7.98416 72.4956 8.16117 72.6049 8.31124 72.746C8.45445 72.8974 8.56859 73.0738 8.64798 73.2664C8.73078 73.4865 8.77229 73.72 8.77043 73.9552L8.7092 74.3072Z" fill="#2A2A2A"/>
<path d="M26.0204 66.2409C25.9252 66.157 25.8165 66.0898 25.699 66.0419C25.5784 66.0115 25.4522 66.0115 25.3316 66.0419H20.9235C20.1946 66.0289 19.4708 66.1643 18.7959 66.4399C18.1583 66.6866 17.5789 67.063 17.0941 67.5451C16.6093 68.0272 16.2299 68.6046 15.9796 69.2409C15.6992 69.9255 15.5586 70.6593 15.5663 71.3991V76.7562H17.5102V74.047H24.3521V76.6797H26.2959V66.945C26.2941 66.8138 26.2681 66.6841 26.2194 66.5623C26.1708 66.4452 26.1036 66.3366 26.0204 66.2409ZM24.3521 72.1031H17.5102V71.3225C17.496 70.8528 17.574 70.3847 17.7398 69.945C17.8771 69.5926 18.0738 69.2665 18.3214 68.9807C18.5358 68.7344 18.7957 68.5317 19.0867 68.3837C19.3442 68.2581 19.6102 68.1507 19.8827 68.0623C20.102 67.9972 20.3279 67.9561 20.5561 67.9399H20.9235H24.3521V72.1031Z" fill="#2A2A2A"/>
<path d="M31.0867 67.9093H35.3878V76.6797H37.3316V67.9093H41.602V65.9654H31.0867V67.9093Z" fill="#2A2A2A"/>
<path d="M48.0919 66.0878C47.845 66.1677 47.6124 66.2866 47.4031 66.4399C47.2055 66.5693 47.0298 66.7295 46.8827 66.9144C46.7401 67.0918 46.6217 67.2874 46.5306 67.496C46.4437 67.6928 46.377 67.8979 46.3317 68.1083C46.3107 68.3016 46.3107 68.4966 46.3317 68.6899V73.9552C46.3283 74.4998 46.4882 75.033 46.7908 75.4858C47.0685 75.8587 47.4375 76.1539 47.8623 76.3429C48.0591 76.4299 48.2642 76.4966 48.4745 76.5419C48.6678 76.5629 48.8628 76.5629 49.0561 76.5419H56.0664V74.7358H48.9796C48.8741 74.7481 48.7673 74.7363 48.667 74.7014C48.5667 74.6665 48.4756 74.6094 48.4005 74.5343C48.3254 74.4592 48.2683 74.3681 48.2334 74.2678C48.1985 74.1675 48.1868 74.0607 48.199 73.9552V68.7052C48.1907 68.5975 48.2041 68.4892 48.2383 68.3866C48.2724 68.2841 48.3267 68.1895 48.398 68.1083C48.4759 68.0367 48.5678 67.982 48.6679 67.9478C48.7681 67.9135 48.8742 67.9004 48.9796 67.9093H55.9898V65.9654H48.9796C48.6795 65.9657 48.3809 66.0069 48.0919 66.0878Z" fill="#2A2A2A"/>
<path d="M69.9949 70.3429H63.1684V65.9654H61.2245V76.6797H63.1684V72.3021H69.9949V76.6797H71.9388V65.9654H69.9949V70.3429Z" fill="#2A2A2A"/>
<path d="M79.5919 65.9654H77.5868V75.7001C77.5795 75.8321 77.6058 75.9637 77.6633 76.0827C77.7053 76.2031 77.7733 76.3129 77.8623 76.4042C77.9546 76.4844 78.0576 76.5514 78.1684 76.6031C78.2955 76.6521 78.4302 76.678 78.5664 76.6797H87.4286V74.7358H79.5919V65.9654Z" fill="#2A2A2A"/>
<path d="M100.99 70.343H94.8521V72.3021H100.99V70.343Z" fill="#2A2A2A"/>
<path d="M92.7245 66.0419C92.6034 66.0826 92.4935 66.1507 92.4032 66.241C92.3129 66.3313 92.2447 66.4413 92.2041 66.5623C92.1554 66.6841 92.1294 66.8138 92.1275 66.945V73.9552C92.1124 74.395 92.2071 74.8316 92.4031 75.2256C92.5682 75.549 92.7973 75.8354 93.0765 76.0674C93.3392 76.2812 93.6406 76.4423 93.9643 76.5419C94.2523 76.6292 94.5511 76.6756 94.852 76.6797H101.862V74.7358H94.898C94.7902 74.7441 94.6819 74.7307 94.5794 74.6966C94.4769 74.6624 94.3823 74.6081 94.301 74.5368C94.1651 74.3742 94.0942 74.167 94.102 73.9552V67.8328H101.893V65.9654H93.1071C92.9753 65.9594 92.8439 65.9857 92.7245 66.0419Z" fill="#2A2A2A"/>
<path d="M117.337 66.2409C117.25 66.1541 117.145 66.0863 117.031 66.0419C116.905 66.0114 116.774 66.0114 116.648 66.0419H112.27C111.537 66.0289 110.808 66.1643 110.128 66.4399C109.49 66.6867 108.911 67.063 108.426 67.5451C107.941 68.0272 107.562 68.6047 107.311 69.2409C107.043 69.9285 106.908 70.6609 106.913 71.3991V76.7562H108.857V74.047H115.684V76.6797H117.628V66.945C117.651 66.8185 117.651 66.6889 117.628 66.5623C117.558 66.4335 117.458 66.3233 117.337 66.2409ZM115.684 72.1032H108.857V71.3225C108.846 70.8543 108.919 70.3878 109.071 69.945C109.214 69.5917 109.416 69.2655 109.668 68.9807C109.883 68.7344 110.143 68.5317 110.434 68.3838C110.689 68.2532 110.955 68.1456 111.23 68.0623C111.444 67.9976 111.665 67.9565 111.888 67.9399H112.27H115.684V72.1032Z" fill="#2A2A2A"/>
<path d="M131.143 73.0981C131.415 73.0345 131.681 72.9474 131.939 72.8379C132.213 72.7036 132.474 72.5448 132.719 72.3634C132.968 72.1683 133.185 71.936 133.362 71.6746C133.558 71.3942 133.708 71.0841 133.806 70.7562C133.921 70.3688 133.978 69.9664 133.974 69.5623V68.3225C133.971 68.0616 133.924 67.8031 133.837 67.5572C133.757 67.278 133.622 67.0177 133.439 66.7919C133.242 66.546 132.997 66.3429 132.719 66.195C132.375 66.0334 131.998 65.9548 131.617 65.9654H124.24C124.114 65.9337 123.983 65.9337 123.857 65.9654C123.736 66.006 123.626 66.0742 123.536 66.1645C123.446 66.2548 123.377 66.3648 123.337 66.4858C123.314 66.6123 123.314 66.7419 123.337 66.8685V76.6032H125.204V67.9093H131.74H131.878C131.878 67.9093 131.878 67.9093 131.985 68.0317C132.004 68.1123 132.004 68.1961 131.985 68.2766V69.5011C131.987 69.7363 131.945 69.9698 131.862 70.1899C131.685 70.5651 131.374 70.8601 130.99 71.0164C130.782 71.1084 130.559 71.1603 130.332 71.1695H125.985V73.1746H127.378L131.434 76.6797H134.495L130.378 73.1746C130.634 73.1696 130.89 73.144 131.143 73.0981Z" fill="#2A2A2A"/>
<path d="M148.056 65.9654V73.4807L140.954 66.0725C140.813 65.941 140.638 65.8513 140.449 65.8135C140.26 65.7756 140.064 65.7911 139.883 65.8582C139.707 65.9368 139.559 66.0643 139.454 66.2256C139.344 66.3827 139.286 66.5697 139.286 66.7613V76.6491H141.23V69.1338L148.332 76.5419C148.418 76.6402 148.529 76.7141 148.653 76.7562C148.775 76.7777 148.899 76.7777 149.02 76.7562C149.277 76.755 149.523 76.6566 149.709 76.4807C149.798 76.3894 149.866 76.2797 149.908 76.1593C149.969 76.041 150.001 75.9097 150 75.7766V65.9654H148.056Z" fill="#2A2A2A"/>
</g>
<defs>
<clipPath id="clip0_336_6">
<rect width="150" height="76.8441" fill="white"/>
</clipPath>
</defs>
</svg>
