<svg width="100" height="100" viewBox="0 0 100 100" fill="none" xmlns="http://www.w3.org/2000/svg">
<path d="M65.5039 43.8039L46.8414 32.3873C44.4414 30.9123 41.5419 30.8628 39.0961 32.2378C36.6461 33.6086 35.1873 36.0997 35.1873 38.8997V61.1003C35.1873 63.9003 36.6502 66.3914 39.0961 67.7622C40.2752 68.4247 41.5623 68.7541 42.8457 68.7541C44.2248 68.7541 45.5998 68.371 46.8414 67.6127L65.5039 56.1961C67.6789 54.8628 68.9835 52.55 68.9835 50C68.9835 47.45 67.6789 45.1372 65.5039 43.8039ZM63.3291 52.6418L44.6665 64.0584C43.5665 64.7251 42.25 64.7537 41.125 64.1245C40.0083 63.4995 39.3458 62.3712 39.3458 61.0962V38.8957C39.3458 37.6248 40.0083 36.4913 41.125 35.8663C41.6666 35.5621 42.2542 35.4126 42.8375 35.4126C43.4667 35.4126 44.0958 35.5876 44.6625 35.9334L63.325 47.3501C64.2708 47.9251 64.8081 48.8877 64.8081 49.9919C64.8081 51.096 64.2749 52.0668 63.3291 52.6418ZM50 6.25C25.875 6.25 6.25 25.875 6.25 50C6.25 74.125 25.875 93.75 50 93.75C74.125 93.75 93.75 74.125 93.75 50C93.75 25.875 74.125 6.25 50 6.25ZM50 89.5833C28.175 89.5833 10.4167 71.825 10.4167 50C10.4167 28.175 28.175 10.4167 50 10.4167C71.825 10.4167 89.5833 28.175 89.5833 50C89.5833 71.825 71.825 89.5833 50 89.5833Z" fill="white"/>
</svg>
