<svg width="70" height="70" viewBox="0 0 70 70" fill="none" xmlns="http://www.w3.org/2000/svg">
<path d="M42.0102 19.3933L48.1506 21.8494L50.6067 27.9898C50.8114 28.2968 51.0161 28.5015 51.4254 28.5015C51.7325 28.5015 51.9371 28.2968 52.1418 27.9898L54.7003 21.8494L60.7383 19.3933C61.0453 19.1886 61.25 18.9839 61.25 18.5746C61.25 18.2675 61.0453 18.0629 60.7383 17.8582L54.7003 15.2997L52.1418 9.2617C51.9371 8.95468 51.7325 8.75 51.3231 8.75C51.0161 8.75 50.8114 8.95468 50.6067 9.2617L48.1506 15.2997L42.0102 17.8582C41.7032 18.0629 41.4985 18.2675 41.4985 18.6769C41.4985 18.9839 41.7032 19.1886 42.0102 19.3933ZM60.7383 50.6067L54.7003 48.0482L52.1418 42.0102C51.9371 41.7032 51.7325 41.4985 51.3231 41.4985C51.0161 41.4985 50.8114 41.7032 50.6067 42.0102L48.1506 48.0482L42.0102 50.6067C41.7032 50.8114 41.4985 51.0161 41.4985 51.4254C41.4985 51.7325 41.7032 51.9371 42.0102 52.1418L48.1506 54.598L50.6067 60.7383C50.8114 61.0453 51.0161 61.25 51.4254 61.25C51.7325 61.25 51.9371 61.0453 52.1418 60.7383L54.7003 54.598L60.7383 52.1418C61.0453 51.9371 61.25 51.7325 61.25 51.3231C61.25 51.0161 61.0453 50.8114 60.7383 50.6067ZM48.1506 34.9488C48.0482 34.0278 47.5365 33.2091 46.7178 32.7997L35.9722 27.4781L30.6506 16.7325C29.8319 15.095 27.0687 15.095 26.25 16.7325L20.9284 27.4781L10.1827 32.7997C9.36404 33.2091 8.75 34.0278 8.75 35.0512C8.75 35.9722 9.36404 36.7909 10.1827 37.2003L20.9284 42.5219L26.25 53.2675C26.6594 54.0863 27.4781 54.7003 28.5015 54.7003C29.4225 54.7003 30.2412 54.0863 30.6506 53.2675L35.9722 42.5219L46.7178 37.2003C47.5365 36.7909 48.0482 35.9722 48.1506 34.9488ZM33.1067 38.5307C32.595 38.7354 32.1857 39.1447 31.981 39.6564L28.5015 46.7178L24.9196 39.6564C24.7149 39.1447 24.3056 38.7354 23.7939 38.5307L16.7325 34.9488L23.7939 31.4693C24.3056 31.2646 24.7149 30.8553 24.9196 30.3436L28.5015 23.2822L31.981 30.3436C32.1857 30.8553 32.595 31.2646 33.1067 31.4693L40.1681 34.9488L33.1067 38.5307Z" fill="#4276FC"/>
</svg>
